<?xml version="1.0" standalone="no"?>
<!DOCTYPE svg PUBLIC "-//W3C//DTD SVG 20010904//EN"
 "http://www.w3.org/TR/2001/REC-SVG-20010904/DTD/svg10.dtd">
<svg version="1.0" xmlns="http://www.w3.org/2000/svg"
 width="201.000000pt" height="300.000000pt" viewBox="0 0 201.000000 300.000000"
 preserveAspectRatio="xMidYMid meet">
<metadata>
Created by potrace 1.13, written by Peter Selinger 2001-2015
</metadata>
<g transform="translate(0.000000,300.000000) scale(0.100000,-0.100000)"
fill="#000000" stroke="none">
<path d="M924 2987 c-77 -30 -147 -105 -161 -170 -7 -36 -12 -38 -59 -22 -92
33 -199 4 -265 -73 -46 -53 -59 -95 -66 -213 l-6 -97 -33 14 c-85 35 -211 2
-272 -72 -64 -77 -62 -55 -62 -843 0 -793 2 -811 67 -967 163 -387 624 -605
1123 -530 402 61 688 297 782 646 22 83 23 96 23 565 l0 480 -29 53 c-62 111
-181 158 -296 117 -23 -8 -44 -15 -46 -15 -2 0 -4 123 -4 273 0 303 -4 331
-62 401 -61 74 -180 106 -265 71 -19 -8 -37 -15 -38 -15 -2 0 -5 51 -7 113 -3
89 -8 120 -25 153 -26 50 -75 98 -121 120 -45 21 -138 27 -178 11z m143 -132
c12 -9 31 -27 40 -42 17 -25 18 -80 23 -718 3 -379 9 -696 13 -702 12 -18 67
-16 89 4 17 15 18 44 18 507 0 447 2 494 18 526 50 101 190 84 221 -26 7 -26
11 -237 11 -623 0 -530 2 -586 17 -603 21 -23 65 -23 86 0 13 14 16 55 19 259
3 227 4 243 24 270 33 44 78 66 120 59 48 -10 93 -53 104 -101 13 -55 12 -771
-1 -875 -24 -199 -128 -377 -288 -494 -173 -128 -447 -194 -691 -167 -250 27
-435 112 -576 264 -109 118 -165 241 -184 408 -7 61 -10 325 -8 759 3 613 4
668 21 697 32 59 110 80 167 46 58 -34 59 -41 63 -486 4 -375 6 -409 22 -427
23 -26 59 -26 85 0 20 20 20 33 20 614 l0 593 23 34 c13 19 39 40 61 48 33 13
44 13 79 0 22 -8 50 -27 61 -42 21 -28 21 -40 26 -621 6 -657 3 -630 69 -624
64 5 62 -20 59 725 -3 666 -3 672 18 700 43 59 114 75 171 38z"/>
</g>
</svg>
